<svg xmlns="http://www.w3.org/2000/svg" xmlns:xlink="http://www.w3.org/1999/xlink" width="1920" height="1963" viewBox="0 0 1920 1963">
  <defs>
    <clipPath id="clip-Homepage_meat_lofi">
      <rect width="1920" height="1963"/>
    </clipPath>
  </defs>
  <g id="Homepage_meat_lofi" data-name="Homepage meat lofi" clip-path="url(#clip-Homepage_meat_lofi)">
    <rect width="1920" height="1963" fill="#fff"/>
    <text id="Explore_healthy_food_recipes_here" data-name="Explore  healthy food recipes here" transform="translate(640 202)" font-size="40" font-family="SegoeUI-Bold, Segoe UI" font-weight="700"><tspan x="0" y="0" xml:space="preserve">Explore  healthy food recipes here</tspan></text>
    <g id="Group_2" data-name="Group 2" transform="translate(1520 250)">
      <g id="Rectangle_3" data-name="Rectangle 3" fill="#fff" stroke="#000" stroke-width="1">
        <rect width="260" height="95" rx="47.5" stroke="none"/>
        <rect x="0.5" y="0.5" width="259" height="94" rx="47" fill="none"/>
      </g>
      <text id="SEARCH" transform="translate(75 60)" font-size="30" font-family="SegoeUI-Semibold, Segoe UI" font-weight="600"><tspan x="0" y="0">SEARCH</tspan></text>
    </g>
    <g id="Group_1" data-name="Group 1" transform="translate(140 250)">
      <rect id="Rectangle_2" data-name="Rectangle 2" width="1363" height="95" rx="47.5" fill="#e1e1e1"/>
      <text id="What_ingredients_do_you_have_" data-name="What ingredients do you have?" transform="translate(480 60)" fill="#fff" font-size="30" font-family="SegoeUI-Semibold, Segoe UI" font-weight="600"><tspan x="0" y="0">What ingredients do you have?</tspan></text>
      <g id="icon_action_search_24px" data-name="icon/action/search_24px" transform="translate(62 26)">
        <rect id="Boundary" width="44" height="44" fill="none"/>
        <path id="_Color" data-name=" ↳Color" d="M34.764,38l0,0L23.9,27.159V25.442l-.587-.608a14.142,14.142,0,1,1,1.521-1.521l.608.587h1.717L38,34.764,34.765,38ZM14.122,4.345A9.777,9.777,0,1,0,23.9,14.122,9.788,9.788,0,0,0,14.122,4.345Z" transform="translate(3 3)" fill="#fff"/>
      </g>
    </g>
    <text id="Best_recipes" data-name="Best recipes" transform="translate(203 441)" font-size="30" font-family="SegoeUI-Bold, Segoe UI" font-weight="700"><tspan x="0" y="0">Best recipes</tspan></text>
    <g id="Group_3" data-name="Group 3" transform="translate(516 381)">
      <g id="Rectangle_3-2" data-name="Rectangle 3" fill="#707070" stroke="#000" stroke-width="1">
        <rect width="191" height="95" rx="47.5" stroke="none"/>
        <rect x="0.5" y="0.5" width="190" height="94" rx="47" fill="none"/>
      </g>
      <text id="Meat" transform="translate(61 53)" font-size="30" font-family="SegoeUI-Semibold, Segoe UI" font-weight="600"><tspan x="0" y="0">Meat</tspan></text>
      <g id="Rectangle_3-3" data-name="Rectangle 3" transform="translate(211)" fill="#e1e1e1" stroke="#000" stroke-width="1">
        <rect width="191" height="95" rx="47.5" stroke="none"/>
        <rect x="0.5" y="0.5" width="190" height="94" rx="47" fill="none"/>
      </g>
      <text id="Fish" transform="translate(272 53)" font-size="30" font-family="SegoeUI-Semibold, Segoe UI" font-weight="600"><tspan x="0" y="0">Fish</tspan></text>
      <g id="Rectangle_3-4" data-name="Rectangle 3" transform="translate(422)" fill="#e1e1e1" stroke="#000" stroke-width="1">
        <rect width="191" height="95" rx="47.5" stroke="none"/>
        <rect x="0.5" y="0.5" width="190" height="94" rx="47" fill="none"/>
      </g>
      <text id="Veges" transform="translate(483 53)" font-size="30" font-family="SegoeUI-Semibold, Segoe UI" font-weight="600"><tspan x="0" y="0">Veges</tspan></text>
      <g id="Rectangle_3-5" data-name="Rectangle 3" transform="translate(633)" fill="#e1e1e1" stroke="#000" stroke-width="1">
        <rect width="191" height="95" rx="47.5" stroke="none"/>
        <rect x="0.5" y="0.5" width="190" height="94" rx="47" fill="none"/>
      </g>
      <text id="Fruits" transform="translate(694 53)" font-size="30" font-family="SegoeUI-Semibold, Segoe UI" font-weight="600"><tspan x="0" y="0">Fruits</tspan></text>
      <g id="Rectangle_3-6" data-name="Rectangle 3" transform="translate(844)" fill="#e1e1e1" stroke="#000" stroke-width="1">
        <rect width="191" height="95" rx="47.5" stroke="none"/>
        <rect x="0.5" y="0.5" width="190" height="94" rx="47" fill="none"/>
      </g>
      <text id="Tubers" transform="translate(905 53)" font-size="30" font-family="SegoeUI-Semibold, Segoe UI" font-weight="600"><tspan x="0" y="0">Tubers</tspan></text>
    </g>
    <g id="Group_38" data-name="Group 38" transform="translate(140 519)">
      <g id="Group_7" data-name="Group 7">
        <rect id="madie-hamilton-Q9yr-cvJr30-unsplash" width="745" height="442" rx="50" fill="#e1e1e1"/>
        <g id="Group_6" data-name="Group 6" transform="translate(16 10)">
          <rect id="Rectangle_3-7" data-name="Rectangle 3" width="192" height="82" rx="41" fill="#fff"/>
          <text id="_30-60min" data-name="30-60min" transform="translate(27 53)" fill="#fff" font-size="30" font-family="SegoeUI-Semibold, Segoe UI" font-weight="600"><tspan x="0" y="0">30-60min</tspan></text>
        </g>
        <text id="Roast_Beef_with_Ugali" data-name="Roast Beef with
Ugali" transform="translate(16 228)" fill="#fff" stroke="#707070" stroke-width="1" font-size="40" font-family="SegoeUI-Bold, Segoe UI" font-weight="700"><tspan x="0" y="0">Roast Beef with</tspan><tspan x="0" y="53">Ugali</tspan></text>
        <text id="_2_Servings" data-name="2 Servings" transform="translate(16 395)" fill="#fff" stroke="#707070" stroke-width="1" font-size="30" font-family="SegoeUI-Semibold, Segoe UI" font-weight="600"><tspan x="0" y="0">2 Servings</tspan></text>
        <g id="icon_action_favorite_24px" data-name="icon/action/favorite_24px" transform="translate(648 30)">
          <rect id="Boundary-2" data-name="Boundary" width="42" height="42" fill="none"/>
          <path id="_Color-2" data-name=" ↳Color" d="M20,36l-2.9-2.59C6.8,24.248,0,18.206,0,10.79A10.791,10.791,0,0,1,11,0a12.073,12.073,0,0,1,9,4.1A12.073,12.073,0,0,1,29,0,10.791,10.791,0,0,1,40,10.79c0,7.416-6.8,13.458-17.1,22.64Z" transform="translate(2 3)" fill="#fff"/>
        </g>
      </g>
      <g id="Group_7-2" data-name="Group 7" transform="translate(895)">
        <rect id="victoria-shes-UC0HZdUitWY-unsplash" width="745" height="442" rx="50" fill="#e1e1e1"/>
        <g id="Group_6-2" data-name="Group 6" transform="translate(16 10)">
          <rect id="Rectangle_3-8" data-name="Rectangle 3" width="192" height="82" rx="41" fill="#fff"/>
          <text id="_30-60min-2" data-name="30-60min" transform="translate(27 53)" fill="#fff" font-size="30" font-family="SegoeUI-Semibold, Segoe UI" font-weight="600"><tspan x="0" y="0">30-60min</tspan></text>
        </g>
        <text id="Beef_Mishikaki_with_Ugali" data-name="Beef Mishikaki 
with Ugali" transform="translate(16 229)" fill="#fff" stroke="#707070" stroke-width="1" font-size="40" font-family="SegoeUI-Bold, Segoe UI" font-weight="700"><tspan x="0" y="0">Beef Mishikaki </tspan><tspan x="0" y="53">with Ugali</tspan></text>
        <text id="_2_Servings-2" data-name="2 Servings" transform="translate(16 395)" fill="#fff" stroke="#707070" stroke-width="1" font-size="30" font-family="SegoeUI-Semibold, Segoe UI" font-weight="600"><tspan x="0" y="0">2 Servings</tspan></text>
        <g id="icon_action_favorite_24px-2" data-name="icon/action/favorite_24px" transform="translate(648 30)">
          <rect id="Boundary-3" data-name="Boundary" width="42" height="42" fill="none"/>
          <path id="_Color-3" data-name=" ↳Color" d="M20,36l-2.9-2.59C6.8,24.248,0,18.206,0,10.79A10.791,10.791,0,0,1,11,0a12.073,12.073,0,0,1,9,4.1A12.073,12.073,0,0,1,29,0,10.791,10.791,0,0,1,40,10.79c0,7.416-6.8,13.458-17.1,22.64Z" transform="translate(2 3)" fill="#fff"/>
        </g>
      </g>
    </g>
    <g id="Group_39" data-name="Group 39" transform="translate(140 995)">
      <g id="Group_7-3" data-name="Group 7">
        <rect id="madie-hamilton-Q9yr-cvJr30-unsplash-2" data-name="madie-hamilton-Q9yr-cvJr30-unsplash" width="745" height="442" rx="50" fill="#e1e1e1"/>
        <g id="Group_6-3" data-name="Group 6" transform="translate(16 10)">
          <rect id="Rectangle_3-9" data-name="Rectangle 3" width="192" height="82" rx="41" fill="#e1e1e1"/>
          <text id="_30-60min-3" data-name="30-60min" transform="translate(27 53)" fill="#e1e1e1" font-size="30" font-family="SegoeUI-Semibold, Segoe UI" font-weight="600"><tspan x="0" y="0">30-60min</tspan></text>
        </g>
        <text id="Roast_Beef_with_Ugali-2" data-name="Roast Beef with
Ugali" transform="translate(16 228)" fill="#e1e1e1" stroke="#707070" stroke-width="1" font-size="40" font-family="SegoeUI-Bold, Segoe UI" font-weight="700"><tspan x="0" y="0">Roast Beef with</tspan><tspan x="0" y="53">Ugali</tspan></text>
        <text id="_2_Servings-3" data-name="2 Servings" transform="translate(16 395)" fill="#e1e1e1" stroke="#707070" stroke-width="1" font-size="30" font-family="SegoeUI-Semibold, Segoe UI" font-weight="600"><tspan x="0" y="0">2 Servings</tspan></text>
        <g id="icon_action_favorite_24px-3" data-name="icon/action/favorite_24px" transform="translate(648 30)">
          <rect id="Boundary-4" data-name="Boundary" width="42" height="42" fill="none"/>
          <path id="_Color-4" data-name=" ↳Color" d="M20,36l-2.9-2.59C6.8,24.248,0,18.206,0,10.79A10.791,10.791,0,0,1,11,0a12.073,12.073,0,0,1,9,4.1A12.073,12.073,0,0,1,29,0,10.791,10.791,0,0,1,40,10.79c0,7.416-6.8,13.458-17.1,22.64Z" transform="translate(2 3)" fill="#e1e1e1"/>
        </g>
      </g>
      <g id="Group_7-4" data-name="Group 7" transform="translate(895)">
        <rect id="victoria-shes-UC0HZdUitWY-unsplash-2" data-name="victoria-shes-UC0HZdUitWY-unsplash" width="745" height="442" rx="50" fill="#e1e1e1"/>
        <g id="Group_6-4" data-name="Group 6" transform="translate(16 10)">
          <rect id="Rectangle_3-10" data-name="Rectangle 3" width="192" height="82" rx="41" fill="#e1e1e1"/>
          <text id="_30-60min-4" data-name="30-60min" transform="translate(27 53)" fill="#e1e1e1" font-size="30" font-family="SegoeUI-Semibold, Segoe UI" font-weight="600"><tspan x="0" y="0">30-60min</tspan></text>
        </g>
        <text id="Beef_Mishikaki_with_Ugali-2" data-name="Beef Mishikaki 
with Ugali" transform="translate(16 229)" fill="#e1e1e1" stroke="#707070" stroke-width="1" font-size="40" font-family="SegoeUI-Bold, Segoe UI" font-weight="700"><tspan x="0" y="0">Beef Mishikaki </tspan><tspan x="0" y="53">with Ugali</tspan></text>
        <text id="_2_Servings-4" data-name="2 Servings" transform="translate(16 395)" fill="#e1e1e1" stroke="#707070" stroke-width="1" font-size="30" font-family="SegoeUI-Semibold, Segoe UI" font-weight="600"><tspan x="0" y="0">2 Servings</tspan></text>
        <g id="icon_action_favorite_24px-4" data-name="icon/action/favorite_24px" transform="translate(648 30)">
          <rect id="Boundary-5" data-name="Boundary" width="42" height="42" fill="none"/>
          <path id="_Color-5" data-name=" ↳Color" d="M20,36l-2.9-2.59C6.8,24.248,0,18.206,0,10.79A10.791,10.791,0,0,1,11,0a12.073,12.073,0,0,1,9,4.1A12.073,12.073,0,0,1,29,0,10.791,10.791,0,0,1,40,10.79c0,7.416-6.8,13.458-17.1,22.64Z" transform="translate(2 3)" fill="#e1e1e1"/>
        </g>
      </g>
    </g>
    <g id="Footer" transform="translate(0 1471)">
      <rect id="Rectangle_7" data-name="Rectangle 7" width="1920" height="445" fill="#fff"/>
      <g id="Group_13" data-name="Group 13" transform="translate(278 146.5)">
        <text id="About_Us" data-name="About Us" transform="translate(0 32)" fill="#707070" font-size="30" font-family="SegoeUI-Bold, Segoe UI" font-weight="700"><tspan x="0" y="0">About Us</tspan></text>
        <text id="About_Us-2" data-name="About Us" transform="translate(0 106)" fill="#707070" font-size="30" font-family="SegoeUI, Segoe UI"><tspan x="0" y="0">About Us</tspan></text>
        <text id="Contact_Us" data-name="Contact Us" transform="translate(0 179)" fill="#707070" font-size="30" font-family="SegoeUI, Segoe UI"><tspan x="0" y="0">Contact Us</tspan></text>
        <text id="Help" transform="translate(0 253)" fill="#707070" font-size="30" font-family="SegoeUI, Segoe UI"><tspan x="0" y="0">Help</tspan></text>
      </g>
      <g id="Group_13-2" data-name="Group 13" transform="translate(888 146.5)">
        <text id="About_Us-3" data-name="About Us" transform="translate(0 32)" fill="#707070" font-size="30" font-family="SegoeUI-Bold, Segoe UI" font-weight="700"><tspan x="0" y="0">About Us</tspan></text>
        <text id="About_Us-4" data-name="About Us" transform="translate(0 106)" fill="#707070" font-size="30" font-family="SegoeUI, Segoe UI"><tspan x="0" y="0">About Us</tspan></text>
        <text id="Contact_Us-2" data-name="Contact Us" transform="translate(0 179)" fill="#707070" font-size="30" font-family="SegoeUI, Segoe UI"><tspan x="0" y="0">Contact Us</tspan></text>
        <text id="Help-2" data-name="Help" transform="translate(0 253)" fill="#707070" font-size="30" font-family="SegoeUI, Segoe UI"><tspan x="0" y="0">Help</tspan></text>
      </g>
      <g id="Group_13-3" data-name="Group 13" transform="translate(1498 146.5)">
        <text id="About_Us-5" data-name="About Us" transform="translate(0 32)" fill="#707070" font-size="30" font-family="SegoeUI-Bold, Segoe UI" font-weight="700"><tspan x="0" y="0">About Us</tspan></text>
        <text id="About_Us-6" data-name="About Us" transform="translate(0 106)" fill="#707070" font-size="30" font-family="SegoeUI, Segoe UI"><tspan x="0" y="0">About Us</tspan></text>
        <text id="Contact_Us-3" data-name="Contact Us" transform="translate(0 179)" fill="#707070" font-size="30" font-family="SegoeUI, Segoe UI"><tspan x="0" y="0">Contact Us</tspan></text>
        <text id="Help-3" data-name="Help" transform="translate(0 253)" fill="#707070" font-size="30" font-family="SegoeUI, Segoe UI"><tspan x="0" y="0">Help</tspan></text>
      </g>
    </g>
    <g id="Group_37" data-name="Group 37" transform="translate(-28)">
      <g id="Group_36" data-name="Group 36">
        <g id="Group_35" data-name="Group 35">
          <g id="Group_34" data-name="Group 34">
            <g id="Group_33" data-name="Group 33">
              <g id="Group_15" data-name="Group 15" transform="translate(1616.667 516)">
                <g id="Group_16" data-name="Group 16" transform="translate(0 -135.5)">
                  <g id="Path_2" data-name="Path 2" fill="#e1e1e1">
                    <path d="M 143.5 94.5 L 47.5 94.5 C 41.15480804443359 94.5 34.99971389770508 93.25740814208984 29.20564270019531 90.80671691894531 C 23.60897636413574 88.43952178955078 18.58254814147949 85.05056762695312 14.26597595214844 80.73402404785156 C 9.949428558349609 76.41744995117188 6.560476303100586 71.39102172851562 4.193285942077637 65.79435729980469 C 1.742595195770264 60.00028610229492 0.5 53.84519195556641 0.5 47.5 C 0.5 41.15480804443359 1.742595195770264 34.99971389770508 4.193285942077637 29.20564270019531 C 6.560476303100586 23.60897636413574 9.949428558349609 18.58254814147949 14.26597595214844 14.26597595214844 C 18.58254814147949 9.949428558349609 23.60897636413574 6.560476303100586 29.20564270019531 4.193285942077637 C 34.99971389770508 1.742595195770264 41.15480804443359 0.5 47.5 0.5 L 143.5 0.5 C 149.8451843261719 0.5 156.0002899169922 1.742595195770264 161.7943572998047 4.193285942077637 C 167.3910217285156 6.560476303100586 172.4174499511719 9.949428558349609 176.7340240478516 14.26597595214844 C 181.0505676269531 18.58254814147949 184.4395294189453 23.60897636413574 186.8067169189453 29.20564270019531 C 189.2574005126953 34.99971389770508 190.5 41.15480804443359 190.5 47.5 C 190.5 53.84519195556641 189.2574005126953 60.00028610229492 186.8067169189453 65.79435729980469 C 184.4395294189453 71.39102172851562 181.0505676269531 76.41744995117188 176.7340240478516 80.73402404785156 C 172.4174499511719 85.05056762695312 167.3910217285156 88.43952178955078 161.7943572998047 90.80671691894531 C 156.0002899169922 93.25740814208984 149.8451843261719 94.5 143.5 94.5 Z" stroke="none"/>
                    <path d="M 47.5 1 C 41.22210693359375 1 35.13252258300781 2.229324340820312 29.40040588378906 4.653800964355469 C 23.86335754394531 6.995773315429688 18.89031982421875 10.34872436523438 14.61952209472656 14.61952209472656 C 10.34872436523438 18.89032745361328 6.995773315429688 23.86334991455078 4.653793334960938 29.40039825439453 C 2.229324340820312 35.13252639770508 1 41.22209930419922 1 47.5 C 1 53.77790069580078 2.229324340820312 59.86747360229492 4.653793334960938 65.59960174560547 C 6.995773315429688 71.13665008544922 10.34872436523438 76.10967254638672 14.61952209472656 80.38047790527344 C 18.89031982421875 84.65127563476562 23.86335754394531 88.00422668457031 29.40040588378906 90.34619903564453 C 35.13252258300781 92.77067565917969 41.22210693359375 94 47.5 94 L 143.5 94 C 149.7778930664062 94 155.8674774169922 92.77067565917969 161.5995941162109 90.34619903564453 C 167.1366577148438 88.00422668457031 172.1096801757812 84.65127563476562 176.3804779052734 80.38047790527344 C 180.6512756347656 76.10967254638672 184.0042266845703 71.13665008544922 186.3462066650391 65.59960174560547 C 188.7706756591797 59.86747360229492 190 53.77790069580078 190 47.5 C 190 41.22209930419922 188.7706756591797 35.13252639770508 186.3462066650391 29.40039825439453 C 184.0042266845703 23.86334991455078 180.6512756347656 18.89032745361328 176.3804779052734 14.61952209472656 C 172.1096801757812 10.34872436523438 167.1366577148438 6.995773315429688 161.5995941162109 4.653800964355469 C 155.8674774169922 2.229324340820312 149.7778930664062 1 143.5 1 L 47.5 1 M 47.5 0 L 143.5 0 C 169.7335205078125 0 191 21.26647186279297 191 47.5 C 191 73.7335205078125 169.7335205078125 95 143.5 95 L 47.5 95 C 21.2664794921875 95 0 73.7335205078125 0 47.5 C 0 21.26647186279297 21.2664794921875 0 47.5 0 Z" stroke="none" fill="#000"/>
                  </g>
                  <path id="arrow_forward_ios_FILL0_wght400_GRAD0_opsz48" d="M15.2,43.9l-2.8-2.85L29.55,23.9,12.4,6.75,15.2,3.9l20,20Z" transform="translate(71.6 24.1)"/>
                </g>
              </g>
            </g>
          </g>
        </g>
      </g>
    </g>
    <g id="Nav_bar_main" data-name="Nav bar main">
      <rect id="Rectangle_1" data-name="Rectangle 1" width="1920" height="97" fill="#707070"/>
      <text id="KIENYEJI" transform="translate(39 65)" fill="#fff" font-size="40" font-family="SegoeUI-Bold, Segoe UI" font-weight="700"><tspan x="0" y="0">KIENYEJI</tspan></text>
      <text id="Articles" transform="translate(603 61)" fill="#fff" font-size="30" font-family="SegoeUI-Semibold, Segoe UI" font-weight="600"><tspan x="0" y="0">Articles</tspan></text>
      <text id="Tutorials" transform="translate(977 61)" fill="#fff" font-size="30" font-family="SegoeUI-Semibold, Segoe UI" font-weight="600"><tspan x="0" y="0">Tutorials</tspan></text>
      <text id="Recipes" transform="translate(1365 61)" fill="#fff" font-size="30" font-family="SegoeUI-Semibold, Segoe UI" font-weight="600"><tspan x="0" y="0">Recipes</tspan></text>
      <g id="account_circle_FILL0_wght400_GRAD0_opsz48" transform="translate(1740 29)">
        <path id="account_circle_FILL0_wght400_GRAD0_opsz48-2" data-name="account_circle_FILL0_wght400_GRAD0_opsz48" d="M11.1,35.25a28.8,28.8,0,0,1,6.25-3.375A18.606,18.606,0,0,1,24,30.7a18.809,18.809,0,0,1,6.675,1.175A28.568,28.568,0,0,1,36.95,35.25a17.553,17.553,0,0,0,3.125-5.45A18.071,18.071,0,0,0,41,24,16.657,16.657,0,0,0,24,7,16.657,16.657,0,0,0,7,24a17.637,17.637,0,0,0,.95,5.8A17.994,17.994,0,0,0,11.1,35.25ZM24,25.5a6.746,6.746,0,0,1-6.85-6.85A6.746,6.746,0,0,1,24,11.8a6.746,6.746,0,0,1,6.85,6.85A6.746,6.746,0,0,1,24,25.5ZM24,44a19.352,19.352,0,0,1-7.75-1.575A20.15,20.15,0,0,1,5.575,31.75,19.352,19.352,0,0,1,4,24a19.3,19.3,0,0,1,1.575-7.775A20.218,20.218,0,0,1,16.25,5.575,19.352,19.352,0,0,1,24,4a19.3,19.3,0,0,1,7.775,1.575,20.286,20.286,0,0,1,10.65,10.65A19.3,19.3,0,0,1,44,24a19.352,19.352,0,0,1-1.575,7.75,20.218,20.218,0,0,1-10.65,10.675A19.3,19.3,0,0,1,24,44Zm0-3a18.337,18.337,0,0,0,5.375-.8,15.973,15.973,0,0,0,5.175-2.8,21.762,21.762,0,0,0-5.2-2.75,15.539,15.539,0,0,0-10.7,0,21.762,21.762,0,0,0-5.2,2.75,15.973,15.973,0,0,0,5.175,2.8A18.337,18.337,0,0,0,24,41Zm0-18.5a3.684,3.684,0,0,0,3.85-3.85,3.851,3.851,0,1,0-7.7,0A3.684,3.684,0,0,0,24,22.5ZM24,18.65ZM24,37.35Z" transform="translate(-4 -4)" fill="#fff"/>
      </g>
    </g>
    <line id="Line_5" data-name="Line 5" x1="391" y2="253" transform="translate(371.5 613.5)" fill="none" stroke="#707070" stroke-width="1"/>
    <line id="Line_6" data-name="Line 6" x2="355" y2="203" transform="translate(371.5 613.5)" fill="none" stroke="#707070" stroke-width="1"/>
    <line id="Line_7" data-name="Line 7" x1="377" y2="212" transform="translate(1281 655)" fill="none" stroke="#707070" stroke-width="1"/>
    <line id="Line_8" data-name="Line 8" x2="409" y2="211" transform="translate(1301.5 655.5)" fill="none" stroke="#707070" stroke-width="1"/>
    <line id="Line_9" data-name="Line 9" x1="362" y2="216" transform="translate(400.5 1117.5)" fill="none" stroke="#707070" stroke-width="1"/>
    <line id="Line_10" data-name="Line 10" x2="443" y2="241" transform="translate(371.5 1092.5)" fill="none" stroke="#707070" stroke-width="1"/>
    <line id="Line_11" data-name="Line 11" x1="604" y2="241" transform="translate(1106.5 1092.5)" fill="none" stroke="#707070" stroke-width="1"/>
    <line id="Line_12" data-name="Line 12" x2="477" y2="281" transform="translate(1181.5 1052.5)" fill="none" stroke="#707070" stroke-width="1"/>
  </g>
</svg>
