<svg xmlns="http://www.w3.org/2000/svg" xmlns:xlink="http://www.w3.org/1999/xlink" width="1920" height="3577" viewBox="0 0 1920 3577">
  <defs>
    <filter id="Rectangle_8" x="131" y="936" width="830" height="760" filterUnits="userSpaceOnUse">
      <feOffset dy="3" input="SourceAlpha"/>
      <feGaussianBlur stdDeviation="3" result="blur"/>
      <feFlood flood-opacity="0.161"/>
      <feComposite operator="in" in2="blur"/>
      <feComposite in="SourceGraphic"/>
    </filter>
    <filter id="Rectangle_8-2" x="959" y="936" width="830" height="760" filterUnits="userSpaceOnUse">
      <feOffset dy="3" input="SourceAlpha"/>
      <feGaussianBlur stdDeviation="3" result="blur-2"/>
      <feFlood flood-opacity="0.161"/>
      <feComposite operator="in" in2="blur-2"/>
      <feComposite in="SourceGraphic"/>
    </filter>
    <clipPath id="clip-path">
      <rect width="347" height="40" fill="none"/>
    </clipPath>
    <clipPath id="clip-path-7">
      <rect width="347" height="161" fill="none"/>
    </clipPath>
    <filter id="Rectangle_9" x="131" y="1888" width="1658" height="312" filterUnits="userSpaceOnUse">
      <feOffset dy="3" input="SourceAlpha"/>
      <feGaussianBlur stdDeviation="3" result="blur-3"/>
      <feFlood flood-opacity="0.161"/>
      <feComposite operator="in" in2="blur-3"/>
      <feComposite in="SourceGraphic"/>
    </filter>
    <filter id="Rectangle_9-2" x="131" y="2202" width="1658" height="312" filterUnits="userSpaceOnUse">
      <feOffset dy="3" input="SourceAlpha"/>
      <feGaussianBlur stdDeviation="3" result="blur-4"/>
      <feFlood flood-opacity="0.161"/>
      <feComposite operator="in" in2="blur-4"/>
      <feComposite in="SourceGraphic"/>
    </filter>
    <filter id="Rectangle_9-3" x="131" y="2516" width="1658" height="312" filterUnits="userSpaceOnUse">
      <feOffset dy="3" input="SourceAlpha"/>
      <feGaussianBlur stdDeviation="3" result="blur-5"/>
      <feFlood flood-opacity="0.161"/>
      <feComposite operator="in" in2="blur-5"/>
      <feComposite in="SourceGraphic"/>
    </filter>
    <clipPath id="clip-Recipe_1_lofi">
      <rect width="1920" height="3577"/>
    </clipPath>
  </defs>
  <g id="Recipe_1_lofi" data-name="Recipe 1 lofi" clip-path="url(#clip-Recipe_1_lofi)">
    <rect width="1920" height="3577" fill="#fff"/>
    <rect id="eaters-collective-12eHC6FxPyg-unsplash" width="1920" height="671" transform="translate(0 97)" fill="#e1e1e1"/>
    <path id="Path_3" data-name="Path 3" d="M150,0H1770c82.843,0,150,50.333,150,112.421v284.8H0v-284.8C0,50.333,67.157,0,150,0Z" transform="translate(0 668.611)" fill="#fff"/>
    <g id="Group_16" data-name="Group 16" transform="translate(1589 262)">
      <g id="Path_2" data-name="Path 2" fill="#fff">
        <path d="M 143.5 94.5 L 47.5 94.5 C 41.15480804443359 94.5 34.99971389770508 93.25740814208984 29.20564270019531 90.80671691894531 C 23.60897636413574 88.43952178955078 18.58254814147949 85.05056762695312 14.26597595214844 80.73402404785156 C 9.949428558349609 76.41744995117188 6.560476303100586 71.39102172851562 4.193285942077637 65.79435729980469 C 1.742595195770264 60.00028610229492 0.5 53.84519195556641 0.5 47.5 C 0.5 41.15480804443359 1.742595195770264 34.99971389770508 4.193285942077637 29.20564270019531 C 6.560476303100586 23.60897636413574 9.949428558349609 18.58254814147949 14.26597595214844 14.26597595214844 C 18.58254814147949 9.949428558349609 23.60897636413574 6.560476303100586 29.20564270019531 4.193285942077637 C 34.99971389770508 1.742595195770264 41.15480804443359 0.5 47.5 0.5 L 143.5 0.5 C 149.8451843261719 0.5 156.0002899169922 1.742595195770264 161.7943572998047 4.193285942077637 C 167.3910217285156 6.560476303100586 172.4174499511719 9.949428558349609 176.7340240478516 14.26597595214844 C 181.0505676269531 18.58254814147949 184.4395294189453 23.60897636413574 186.8067169189453 29.20564270019531 C 189.2574005126953 34.99971389770508 190.5 41.15480804443359 190.5 47.5 C 190.5 53.84519195556641 189.2574005126953 60.00028610229492 186.8067169189453 65.79435729980469 C 184.4395294189453 71.39102172851562 181.0505676269531 76.41744995117188 176.7340240478516 80.73402404785156 C 172.4174499511719 85.05056762695312 167.3910217285156 88.43952178955078 161.7943572998047 90.80671691894531 C 156.0002899169922 93.25740814208984 149.8451843261719 94.5 143.5 94.5 Z" stroke="none"/>
        <path d="M 47.5 1 C 41.22210693359375 1 35.13252258300781 2.229324340820312 29.40040588378906 4.653800964355469 C 23.86335754394531 6.995773315429688 18.89031982421875 10.34872436523438 14.61952209472656 14.61952209472656 C 10.34872436523438 18.89032745361328 6.995773315429688 23.86334991455078 4.653793334960938 29.40039825439453 C 2.229324340820312 35.13252639770508 1 41.22209930419922 1 47.5 C 1 53.77790069580078 2.229324340820312 59.86747360229492 4.653793334960938 65.59960174560547 C 6.995773315429688 71.13665008544922 10.34872436523438 76.10967254638672 14.61952209472656 80.38047790527344 C 18.89031982421875 84.65127563476562 23.86335754394531 88.00422668457031 29.40040588378906 90.34619903564453 C 35.13252258300781 92.77067565917969 41.22210693359375 94 47.5 94 L 143.5 94 C 149.7778930664062 94 155.8674774169922 92.77067565917969 161.5995941162109 90.34619903564453 C 167.1366577148438 88.00422668457031 172.1096801757812 84.65127563476562 176.3804779052734 80.38047790527344 C 180.6512756347656 76.10967254638672 184.0042266845703 71.13665008544922 186.3462066650391 65.59960174560547 C 188.7706756591797 59.86747360229492 190 53.77790069580078 190 47.5 C 190 41.22209930419922 188.7706756591797 35.13252639770508 186.3462066650391 29.40039825439453 C 184.0042266845703 23.86334991455078 180.6512756347656 18.89032745361328 176.3804779052734 14.61952209472656 C 172.1096801757812 10.34872436523438 167.1366577148438 6.995773315429688 161.5995941162109 4.653800964355469 C 155.8674774169922 2.229324340820312 149.7778930664062 1 143.5 1 L 47.5 1 M 47.5 0 L 143.5 0 C 169.7335205078125 0 191 21.26647186279297 191 47.5 C 191 73.7335205078125 169.7335205078125 95 143.5 95 L 47.5 95 C 21.2664794921875 95 0 73.7335205078125 0 47.5 C 0 21.26647186279297 21.2664794921875 0 47.5 0 Z" stroke="none" fill="#2a0"/>
      </g>
      <path id="arrow_forward_ios_FILL0_wght400_GRAD0_opsz48" d="M15.2,43.9l-2.8-2.85L29.55,23.9,12.4,6.75,15.2,3.9l20,20Z" transform="translate(71.6 24.1)" fill="#707070"/>
    </g>
    <g id="_2_serving_btn" data-name="2 serving btn" transform="translate(140 762)">
      <g id="Group_21" data-name="Group 21">
        <g id="Path_2-2" data-name="Path 2" fill="#707070">
          <path d="M 142.7486877441406 94.5 L 47.25130844116211 94.5 C 40.94002532958984 94.5 34.81778717041016 93.25752258300781 29.05461883544922 90.80706787109375 C 23.48764228820801 88.44004821777344 18.48783302307129 85.05128479003906 14.19407176971436 80.73495483398438 C 9.900142669677734 76.41840362548828 6.528928756713867 71.39197540283203 4.174118995666504 65.79523468017578 C 1.736142873764038 60.00090408325195 0.5 53.84550094604492 0.5 47.5 C 0.5 41.15449905395508 1.736142873764038 34.99909591674805 4.174118995666504 29.20476150512695 C 6.528928756713867 23.60802459716797 9.900142669677734 18.58159446716309 14.19407176971436 14.26504802703857 C 18.48783302307129 9.948714256286621 23.48764228820801 6.559952259063721 29.05461883544922 4.192928791046143 C 34.81778717041016 1.742476224899292 40.94002532958984 0.5 47.25130844116211 0.5 L 142.7486877441406 0.5 C 149.0599822998047 0.5 155.1822204589844 1.742476224899292 160.9453735351562 4.192928791046143 C 166.5123596191406 6.559952259063721 171.5121612548828 9.948714256286621 175.8059234619141 14.26504802703857 C 180.099853515625 18.58159446716309 183.4710693359375 23.60802459716797 185.8258819580078 29.20476150512695 C 188.2638549804688 34.99909591674805 189.5 41.15449905395508 189.5 47.5 C 189.5 53.84550094604492 188.2638549804688 60.00090408325195 185.8258819580078 65.79523468017578 C 183.4710693359375 71.39197540283203 180.099853515625 76.41840362548828 175.8059234619141 80.73495483398438 C 171.5121612548828 85.05128479003906 166.5123596191406 88.44004821777344 160.9453735351562 90.80706787109375 C 155.1822204589844 93.25752258300781 149.0599822998047 94.5 142.7486877441406 94.5 Z" stroke="none"/>
          <path d="M 47.25129699707031 1 C 41.00762939453125 1 34.95120239257812 2.229072570800781 29.250244140625 4.653053283691406 C 23.742919921875 6.994697570800781 18.79656982421875 10.34729766845703 14.54855346679688 14.61767578125 C 10.30015563964844 18.888427734375 6.964752197265625 23.86147308349609 4.634979248046875 29.39867401123047 C 2.222976684570312 35.13127517700195 1 41.22145080566406 1 47.5 C 1 53.77854919433594 2.222976684570312 59.86872482299805 4.634979248046875 65.60132598876953 C 6.964752197265625 71.13852691650391 10.30015563964844 76.111572265625 14.54855346679688 80.38232421875 C 18.79656982421875 84.65270233154297 23.742919921875 88.00530242919922 29.250244140625 90.34694671630859 C 34.95120239257812 92.77092742919922 41.00762939453125 94 47.25129699707031 94 L 142.7486724853516 94 C 148.9923553466797 94 155.0487670898438 92.77092742919922 160.7497253417969 90.34694671630859 C 166.2570495605469 88.00530242919922 171.2034301757812 84.65270233154297 175.4514465332031 80.38232421875 C 179.6998291015625 76.111572265625 183.0352478027344 71.13852691650391 185.3650207519531 65.60132598876953 C 187.7770233154297 59.86872482299805 189 53.77854919433594 189 47.5 C 189 41.22145080566406 187.7770233154297 35.13127517700195 185.3650207519531 29.39867401123047 C 183.0352478027344 23.86147308349609 179.6998291015625 18.888427734375 175.4514465332031 14.61767578125 C 171.2034301757812 10.34729766845703 166.2570495605469 6.994697570800781 160.7497253417969 4.653053283691406 C 155.0487670898438 2.229072570800781 148.9923553466797 1 142.7486724853516 1 L 47.25129699707031 1 M 47.25129699707031 0 L 142.7486724853516 0 C 168.8448486328125 0 190 21.26647186279297 190 47.5 C 190 73.7335205078125 168.8448486328125 95 142.7486724853516 95 L 47.25129699707031 95 C 21.15512084960938 95 0 73.7335205078125 0 47.5 C 0 21.26647186279297 21.15512084960938 0 47.25129699707031 0 Z" stroke="none" fill="#2a0"/>
        </g>
        <text id="_2_serving" data-name="2 serving" transform="translate(32.5 60)" fill="#fff" font-size="30" font-family="SegoeUI-Semibold, Segoe UI" font-weight="600"><tspan x="0" y="0">2 serving</tspan></text>
      </g>
    </g>
    <g id="Group_20" data-name="Group 20" transform="translate(430.291 762)">
      <g id="Group_22" data-name="Group 22">
        <g id="Path_2-3" data-name="Path 2" fill="#707070">
          <path d="M 143.5 94.5 L 47.5 94.5 C 41.15480804443359 94.5 34.99971389770508 93.25740814208984 29.20564270019531 90.80671691894531 C 23.60897636413574 88.43952178955078 18.58254814147949 85.05056762695312 14.26597595214844 80.73402404785156 C 9.949428558349609 76.41744995117188 6.560476303100586 71.39102172851562 4.193285942077637 65.79435729980469 C 1.742595195770264 60.00028610229492 0.5 53.84519195556641 0.5 47.5 C 0.5 41.15480804443359 1.742595195770264 34.99971389770508 4.193285942077637 29.20564270019531 C 6.560476303100586 23.60897636413574 9.949428558349609 18.58254814147949 14.26597595214844 14.26597595214844 C 18.58254814147949 9.949428558349609 23.60897636413574 6.560476303100586 29.20564270019531 4.193285942077637 C 34.99971389770508 1.742595195770264 41.15480804443359 0.5 47.5 0.5 L 143.5 0.5 C 149.8451843261719 0.5 156.0002899169922 1.742595195770264 161.7943572998047 4.193285942077637 C 167.3910217285156 6.560476303100586 172.4174499511719 9.949428558349609 176.7340240478516 14.26597595214844 C 181.0505676269531 18.58254814147949 184.4395294189453 23.60897636413574 186.8067169189453 29.20564270019531 C 189.2574005126953 34.99971389770508 190.5 41.15480804443359 190.5 47.5 C 190.5 53.84519195556641 189.2574005126953 60.00028610229492 186.8067169189453 65.79435729980469 C 184.4395294189453 71.39102172851562 181.0505676269531 76.41744995117188 176.7340240478516 80.73402404785156 C 172.4174499511719 85.05056762695312 167.3910217285156 88.43952178955078 161.7943572998047 90.80671691894531 C 156.0002899169922 93.25740814208984 149.8451843261719 94.5 143.5 94.5 Z" stroke="none"/>
          <path d="M 47.5 1 C 41.22210693359375 1 35.13252258300781 2.229324340820312 29.40040588378906 4.653800964355469 C 23.86335754394531 6.995773315429688 18.89031982421875 10.34872436523438 14.61952209472656 14.61952209472656 C 10.34872436523438 18.89032745361328 6.995773315429688 23.86334991455078 4.653793334960938 29.40039825439453 C 2.229324340820312 35.13252639770508 1 41.22209930419922 1 47.5 C 1 53.77790069580078 2.229324340820312 59.86747360229492 4.653793334960938 65.59960174560547 C 6.995773315429688 71.13665008544922 10.34872436523438 76.10967254638672 14.61952209472656 80.38047790527344 C 18.89031982421875 84.65127563476562 23.86335754394531 88.00422668457031 29.40040588378906 90.34619903564453 C 35.13252258300781 92.77067565917969 41.22210693359375 94 47.5 94 L 143.5 94 C 149.7778930664062 94 155.8674774169922 92.77067565917969 161.5995941162109 90.34619903564453 C 167.1366577148438 88.00422668457031 172.1096801757812 84.65127563476562 176.3804779052734 80.38047790527344 C 180.6512756347656 76.10967254638672 184.0042266845703 71.13665008544922 186.3462066650391 65.59960174560547 C 188.7706756591797 59.86747360229492 190 53.77790069580078 190 47.5 C 190 41.22209930419922 188.7706756591797 35.13252639770508 186.3462066650391 29.40039825439453 C 184.0042266845703 23.86334991455078 180.6512756347656 18.89032745361328 176.3804779052734 14.61952209472656 C 172.1096801757812 10.34872436523438 167.1366577148438 6.995773315429688 161.5995941162109 4.653800964355469 C 155.8674774169922 2.229324340820312 149.7778930664062 1 143.5 1 L 47.5 1 M 47.5 0 L 143.5 0 C 169.7335205078125 0 191 21.26647186279297 191 47.5 C 191 73.7335205078125 169.7335205078125 95 143.5 95 L 47.5 95 C 21.2664794921875 95 0 73.7335205078125 0 47.5 C 0 21.26647186279297 21.2664794921875 0 47.5 0 Z" stroke="none" fill="#2a0"/>
        </g>
        <text id="_20-30min" data-name="20-30min" transform="translate(30.709 60)" fill="#fff" font-size="30" font-family="SegoeUI-Semibold, Segoe UI" font-weight="600"><tspan x="0" y="0">20-30min</tspan></text>
      </g>
    </g>
    <g id="Group_20-2" data-name="Group 20" transform="translate(720.582 762)">
      <g id="Group_23" data-name="Group 23">
        <g id="Path_2-4" data-name="Path 2" fill="#707070">
          <path d="M 143.5 94.5 L 47.5 94.5 C 41.15480804443359 94.5 34.99971389770508 93.25740814208984 29.20564270019531 90.80671691894531 C 23.60897636413574 88.43952178955078 18.58254814147949 85.05056762695312 14.26597595214844 80.73402404785156 C 9.949428558349609 76.41744995117188 6.560476303100586 71.39102172851562 4.193285942077637 65.79435729980469 C 1.742595195770264 60.00028610229492 0.5 53.84519195556641 0.5 47.5 C 0.5 41.15480804443359 1.742595195770264 34.99971389770508 4.193285942077637 29.20564270019531 C 6.560476303100586 23.60897636413574 9.949428558349609 18.58254814147949 14.26597595214844 14.26597595214844 C 18.58254814147949 9.949428558349609 23.60897636413574 6.560476303100586 29.20564270019531 4.193285942077637 C 34.99971389770508 1.742595195770264 41.15480804443359 0.5 47.5 0.5 L 143.5 0.5 C 149.8451843261719 0.5 156.0002899169922 1.742595195770264 161.7943572998047 4.193285942077637 C 167.3910217285156 6.560476303100586 172.4174499511719 9.949428558349609 176.7340240478516 14.26597595214844 C 181.0505676269531 18.58254814147949 184.4395294189453 23.60897636413574 186.8067169189453 29.20564270019531 C 189.2574005126953 34.99971389770508 190.5 41.15480804443359 190.5 47.5 C 190.5 53.84519195556641 189.2574005126953 60.00028610229492 186.8067169189453 65.79435729980469 C 184.4395294189453 71.39102172851562 181.0505676269531 76.41744995117188 176.7340240478516 80.73402404785156 C 172.4174499511719 85.05056762695312 167.3910217285156 88.43952178955078 161.7943572998047 90.80671691894531 C 156.0002899169922 93.25740814208984 149.8451843261719 94.5 143.5 94.5 Z" stroke="none"/>
          <path d="M 47.5 1 C 41.22210693359375 1 35.13252258300781 2.229324340820312 29.40040588378906 4.653800964355469 C 23.86335754394531 6.995773315429688 18.89031982421875 10.34872436523438 14.61952209472656 14.61952209472656 C 10.34872436523438 18.89032745361328 6.995773315429688 23.86334991455078 4.653793334960938 29.40039825439453 C 2.229324340820312 35.13252639770508 1 41.22209930419922 1 47.5 C 1 53.77790069580078 2.229324340820312 59.86747360229492 4.653793334960938 65.59960174560547 C 6.995773315429688 71.13665008544922 10.34872436523438 76.10967254638672 14.61952209472656 80.38047790527344 C 18.89031982421875 84.65127563476562 23.86335754394531 88.00422668457031 29.40040588378906 90.34619903564453 C 35.13252258300781 92.77067565917969 41.22210693359375 94 47.5 94 L 143.5 94 C 149.7778930664062 94 155.8674774169922 92.77067565917969 161.5995941162109 90.34619903564453 C 167.1366577148438 88.00422668457031 172.1096801757812 84.65127563476562 176.3804779052734 80.38047790527344 C 180.6512756347656 76.10967254638672 184.0042266845703 71.13665008544922 186.3462066650391 65.59960174560547 C 188.7706756591797 59.86747360229492 190 53.77790069580078 190 47.5 C 190 41.22209930419922 188.7706756591797 35.13252639770508 186.3462066650391 29.40039825439453 C 184.0042266845703 23.86334991455078 180.6512756347656 18.89032745361328 176.3804779052734 14.61952209472656 C 172.1096801757812 10.34872436523438 167.1366577148438 6.995773315429688 161.5995941162109 4.653800964355469 C 155.8674774169922 2.229324340820312 149.7778930664062 1 143.5 1 L 47.5 1 M 47.5 0 L 143.5 0 C 169.7335205078125 0 191 21.26647186279297 191 47.5 C 191 73.7335205078125 169.7335205078125 95 143.5 95 L 47.5 95 C 21.2664794921875 95 0 73.7335205078125 0 47.5 C 0 21.26647186279297 21.2664794921875 0 47.5 0 Z" stroke="none" fill="#2a0"/>
        </g>
        <text id="Vege" transform="translate(62.418 60)" fill="#fff" font-size="30" font-family="SegoeUI-Semibold, Segoe UI" font-weight="600"><tspan x="0" y="0">Vege</tspan></text>
      </g>
    </g>
    <g id="Group_20-3" data-name="Group 20" transform="translate(1009.654 762)">
      <g id="Group_24" data-name="Group 24">
        <g id="Path_2-5" data-name="Path 2" fill="#707070">
          <path d="M 143.5 94.5 L 47.5 94.5 C 41.15480804443359 94.5 34.99971389770508 93.25740814208984 29.20564270019531 90.80671691894531 C 23.60897636413574 88.43952178955078 18.58254814147949 85.05056762695312 14.26597595214844 80.73402404785156 C 9.949428558349609 76.41744995117188 6.560476303100586 71.39102172851562 4.193285942077637 65.79435729980469 C 1.742595195770264 60.00028610229492 0.5 53.84519195556641 0.5 47.5 C 0.5 41.15480804443359 1.742595195770264 34.99971389770508 4.193285942077637 29.20564270019531 C 6.560476303100586 23.60897636413574 9.949428558349609 18.58254814147949 14.26597595214844 14.26597595214844 C 18.58254814147949 9.949428558349609 23.60897636413574 6.560476303100586 29.20564270019531 4.193285942077637 C 34.99971389770508 1.742595195770264 41.15480804443359 0.5 47.5 0.5 L 143.5 0.5 C 149.8451843261719 0.5 156.0002899169922 1.742595195770264 161.7943572998047 4.193285942077637 C 167.3910217285156 6.560476303100586 172.4174499511719 9.949428558349609 176.7340240478516 14.26597595214844 C 181.0505676269531 18.58254814147949 184.4395294189453 23.60897636413574 186.8067169189453 29.20564270019531 C 189.2574005126953 34.99971389770508 190.5 41.15480804443359 190.5 47.5 C 190.5 53.84519195556641 189.2574005126953 60.00028610229492 186.8067169189453 65.79435729980469 C 184.4395294189453 71.39102172851562 181.0505676269531 76.41744995117188 176.7340240478516 80.73402404785156 C 172.4174499511719 85.05056762695312 167.3910217285156 88.43952178955078 161.7943572998047 90.80671691894531 C 156.0002899169922 93.25740814208984 149.8451843261719 94.5 143.5 94.5 Z" stroke="none"/>
          <path d="M 47.5 1 C 41.22210693359375 1 35.13252258300781 2.229324340820312 29.40040588378906 4.653800964355469 C 23.86335754394531 6.995773315429688 18.89031982421875 10.34872436523438 14.61952209472656 14.61952209472656 C 10.34872436523438 18.89032745361328 6.995773315429688 23.86334991455078 4.653793334960938 29.40039825439453 C 2.229324340820312 35.13252639770508 1 41.22209930419922 1 47.5 C 1 53.77790069580078 2.229324340820312 59.86747360229492 4.653793334960938 65.59960174560547 C 6.995773315429688 71.13665008544922 10.34872436523438 76.10967254638672 14.61952209472656 80.38047790527344 C 18.89031982421875 84.65127563476562 23.86335754394531 88.00422668457031 29.40040588378906 90.34619903564453 C 35.13252258300781 92.77067565917969 41.22210693359375 94 47.5 94 L 143.5 94 C 149.7778930664062 94 155.8674774169922 92.77067565917969 161.5995941162109 90.34619903564453 C 167.1366577148438 88.00422668457031 172.1096801757812 84.65127563476562 176.3804779052734 80.38047790527344 C 180.6512756347656 76.10967254638672 184.0042266845703 71.13665008544922 186.3462066650391 65.59960174560547 C 188.7706756591797 59.86747360229492 190 53.77790069580078 190 47.5 C 190 41.22209930419922 188.7706756591797 35.13252639770508 186.3462066650391 29.40039825439453 C 184.0042266845703 23.86334991455078 180.6512756347656 18.89032745361328 176.3804779052734 14.61952209472656 C 172.1096801757812 10.34872436523438 167.1366577148438 6.995773315429688 161.5995941162109 4.653800964355469 C 155.8674774169922 2.229324340820312 149.7778930664062 1 143.5 1 L 47.5 1 M 47.5 0 L 143.5 0 C 169.7335205078125 0 191 21.26647186279297 191 47.5 C 191 73.7335205078125 169.7335205078125 95 143.5 95 L 47.5 95 C 21.2664794921875 95 0 73.7335205078125 0 47.5 C 0 21.26647186279297 21.2664794921875 0 47.5 0 Z" stroke="none" fill="#2a0"/>
        </g>
        <text id="Hard" transform="translate(61.346 60)" fill="#fff" font-size="30" font-family="SegoeUI-Semibold, Segoe UI" font-weight="600"><tspan x="0" y="0">Hard</tspan></text>
      </g>
    </g>
    <g id="Group_20-4" data-name="Group 20" transform="translate(1299.945 762)">
      <g id="Group_25" data-name="Group 25">
        <g id="Path_2-6" data-name="Path 2" fill="#707070">
          <path d="M 143.5 94.5 L 47.5 94.5 C 41.15480804443359 94.5 34.99971389770508 93.25740814208984 29.20564270019531 90.80671691894531 C 23.60897636413574 88.43952178955078 18.58254814147949 85.05056762695312 14.26597595214844 80.73402404785156 C 9.949428558349609 76.41744995117188 6.560476303100586 71.39102172851562 4.193285942077637 65.79435729980469 C 1.742595195770264 60.00028610229492 0.5 53.84519195556641 0.5 47.5 C 0.5 41.15480804443359 1.742595195770264 34.99971389770508 4.193285942077637 29.20564270019531 C 6.560476303100586 23.60897636413574 9.949428558349609 18.58254814147949 14.26597595214844 14.26597595214844 C 18.58254814147949 9.949428558349609 23.60897636413574 6.560476303100586 29.20564270019531 4.193285942077637 C 34.99971389770508 1.742595195770264 41.15480804443359 0.5 47.5 0.5 L 143.5 0.5 C 149.8451843261719 0.5 156.0002899169922 1.742595195770264 161.7943572998047 4.193285942077637 C 167.3910217285156 6.560476303100586 172.4174499511719 9.949428558349609 176.7340240478516 14.26597595214844 C 181.0505676269531 18.58254814147949 184.4395294189453 23.60897636413574 186.8067169189453 29.20564270019531 C 189.2574005126953 34.99971389770508 190.5 41.15480804443359 190.5 47.5 C 190.5 53.84519195556641 189.2574005126953 60.00028610229492 186.8067169189453 65.79435729980469 C 184.4395294189453 71.39102172851562 181.0505676269531 76.41744995117188 176.7340240478516 80.73402404785156 C 172.4174499511719 85.05056762695312 167.3910217285156 88.43952178955078 161.7943572998047 90.80671691894531 C 156.0002899169922 93.25740814208984 149.8451843261719 94.5 143.5 94.5 Z" stroke="none"/>
          <path d="M 47.5 1 C 41.22210693359375 1 35.13252258300781 2.229324340820312 29.40040588378906 4.653800964355469 C 23.86335754394531 6.995773315429688 18.89031982421875 10.34872436523438 14.61952209472656 14.61952209472656 C 10.34872436523438 18.89032745361328 6.995773315429688 23.86334991455078 4.653793334960938 29.40039825439453 C 2.229324340820312 35.13252639770508 1 41.22209930419922 1 47.5 C 1 53.77790069580078 2.229324340820312 59.86747360229492 4.653793334960938 65.59960174560547 C 6.995773315429688 71.13665008544922 10.34872436523438 76.10967254638672 14.61952209472656 80.38047790527344 C 18.89031982421875 84.65127563476562 23.86335754394531 88.00422668457031 29.40040588378906 90.34619903564453 C 35.13252258300781 92.77067565917969 41.22210693359375 94 47.5 94 L 143.5 94 C 149.7778930664062 94 155.8674774169922 92.77067565917969 161.5995941162109 90.34619903564453 C 167.1366577148438 88.00422668457031 172.1096801757812 84.65127563476562 176.3804779052734 80.38047790527344 C 180.6512756347656 76.10967254638672 184.0042266845703 71.13665008544922 186.3462066650391 65.59960174560547 C 188.7706756591797 59.86747360229492 190 53.77790069580078 190 47.5 C 190 41.22209930419922 188.7706756591797 35.13252639770508 186.3462066650391 29.40039825439453 C 184.0042266845703 23.86334991455078 180.6512756347656 18.89032745361328 176.3804779052734 14.61952209472656 C 172.1096801757812 10.34872436523438 167.1366577148438 6.995773315429688 161.5995941162109 4.653800964355469 C 155.8674774169922 2.229324340820312 149.7778930664062 1 143.5 1 L 47.5 1 M 47.5 0 L 143.5 0 C 169.7335205078125 0 191 21.26647186279297 191 47.5 C 191 73.7335205078125 169.7335205078125 95 143.5 95 L 47.5 95 C 21.2664794921875 95 0 73.7335205078125 0 47.5 C 0 21.26647186279297 21.2664794921875 0 47.5 0 Z" stroke="none" fill="#2a0"/>
        </g>
        <text id="_130_Kcal" data-name="130 Kcal" transform="translate(40.055 60)" fill="#fff" font-size="30" font-family="SegoeUI-Semibold, Segoe UI" font-weight="600"><tspan x="0" y="0">130 Kcal</tspan></text>
      </g>
    </g>
    <g id="Group_20-5" data-name="Group 20" transform="translate(1589 762)">
      <g id="Group_26" data-name="Group 26">
        <g id="Path_2-7" data-name="Path 2" fill="#707070">
          <path d="M 143.5 94.5 L 47.5 94.5 C 41.15480804443359 94.5 34.99971389770508 93.25740814208984 29.20564270019531 90.80671691894531 C 23.60897636413574 88.43952178955078 18.58254814147949 85.05056762695312 14.26597595214844 80.73402404785156 C 9.949428558349609 76.41744995117188 6.560476303100586 71.39102172851562 4.193285942077637 65.79435729980469 C 1.742595195770264 60.00028610229492 0.5 53.84519195556641 0.5 47.5 C 0.5 41.15480804443359 1.742595195770264 34.99971389770508 4.193285942077637 29.20564270019531 C 6.560476303100586 23.60897636413574 9.949428558349609 18.58254814147949 14.26597595214844 14.26597595214844 C 18.58254814147949 9.949428558349609 23.60897636413574 6.560476303100586 29.20564270019531 4.193285942077637 C 34.99971389770508 1.742595195770264 41.15480804443359 0.5 47.5 0.5 L 143.5 0.5 C 149.8451843261719 0.5 156.0002899169922 1.742595195770264 161.7943572998047 4.193285942077637 C 167.3910217285156 6.560476303100586 172.4174499511719 9.949428558349609 176.7340240478516 14.26597595214844 C 181.0505676269531 18.58254814147949 184.4395294189453 23.60897636413574 186.8067169189453 29.20564270019531 C 189.2574005126953 34.99971389770508 190.5 41.15480804443359 190.5 47.5 C 190.5 53.84519195556641 189.2574005126953 60.00028610229492 186.8067169189453 65.79435729980469 C 184.4395294189453 71.39102172851562 181.0505676269531 76.41744995117188 176.7340240478516 80.73402404785156 C 172.4174499511719 85.05056762695312 167.3910217285156 88.43952178955078 161.7943572998047 90.80671691894531 C 156.0002899169922 93.25740814208984 149.8451843261719 94.5 143.5 94.5 Z" stroke="none"/>
          <path d="M 47.5 1 C 41.22210693359375 1 35.13252258300781 2.229324340820312 29.40040588378906 4.653800964355469 C 23.86335754394531 6.995773315429688 18.89031982421875 10.34872436523438 14.61952209472656 14.61952209472656 C 10.34872436523438 18.89032745361328 6.995773315429688 23.86334991455078 4.653793334960938 29.40039825439453 C 2.229324340820312 35.13252639770508 1 41.22209930419922 1 47.5 C 1 53.77790069580078 2.229324340820312 59.86747360229492 4.653793334960938 65.59960174560547 C 6.995773315429688 71.13665008544922 10.34872436523438 76.10967254638672 14.61952209472656 80.38047790527344 C 18.89031982421875 84.65127563476562 23.86335754394531 88.00422668457031 29.40040588378906 90.34619903564453 C 35.13252258300781 92.77067565917969 41.22210693359375 94 47.5 94 L 143.5 94 C 149.7778930664062 94 155.8674774169922 92.77067565917969 161.5995941162109 90.34619903564453 C 167.1366577148438 88.00422668457031 172.1096801757812 84.65127563476562 176.3804779052734 80.38047790527344 C 180.6512756347656 76.10967254638672 184.0042266845703 71.13665008544922 186.3462066650391 65.59960174560547 C 188.7706756591797 59.86747360229492 190 53.77790069580078 190 47.5 C 190 41.22209930419922 188.7706756591797 35.13252639770508 186.3462066650391 29.40039825439453 C 184.0042266845703 23.86334991455078 180.6512756347656 18.89032745361328 176.3804779052734 14.61952209472656 C 172.1096801757812 10.34872436523438 167.1366577148438 6.995773315429688 161.5995941162109 4.653800964355469 C 155.8674774169922 2.229324340820312 149.7778930664062 1 143.5 1 L 47.5 1 M 47.5 0 L 143.5 0 C 169.7335205078125 0 191 21.26647186279297 191 47.5 C 191 73.7335205078125 169.7335205078125 95 143.5 95 L 47.5 95 C 21.2664794921875 95 0 73.7335205078125 0 47.5 C 0 21.26647186279297 21.2664794921875 0 47.5 0 Z" stroke="none" fill="#2a0"/>
        </g>
        <text id="_4.8" data-name="4.8" transform="translate(75 60)" fill="#fff" font-size="30" font-family="SegoeUI-Semibold, Segoe UI" font-weight="600"><tspan x="0" y="0">4.8</tspan></text>
      </g>
    </g>
    <text id="Vegeterian_Green_Bowl" data-name="Vegeterian Green Bowl" transform="translate(746 726)" fill="#707070" font-size="40" font-family="SegoeUI-Bold, Segoe UI" font-weight="700"><tspan x="0" y="0">Vegeterian Green Bowl</tspan></text>
    <g transform="matrix(1, 0, 0, 1, 0, 0)" filter="url(#Rectangle_8)">
      <g id="Rectangle_8-3" data-name="Rectangle 8" transform="translate(140 942)" fill="#e1e1e1" stroke="#000" stroke-width="1">
        <rect width="812" height="742" stroke="none"/>
        <rect x="0.5" y="0.5" width="811" height="741" fill="none"/>
      </g>
    </g>
    <g transform="matrix(1, 0, 0, 1, 0, 0)" filter="url(#Rectangle_8-2)">
      <g id="Rectangle_8-4" data-name="Rectangle 8" transform="translate(968 942)" fill="#e1e1e1" stroke="#000" stroke-width="1">
        <rect width="812" height="742" stroke="none"/>
        <rect x="0.5" y="0.5" width="811" height="741" fill="none"/>
      </g>
    </g>
    <text id="Nutrional_Value_per_serving" data-name="Nutrional Value per serving" transform="translate(190 1011)" font-size="40" font-family="SegoeUI-Bold, Segoe UI" font-weight="700"><tspan x="0" y="0">Nutrional Value per serving</tspan></text>
    <g id="Group_27" data-name="Group 27">
      <text id="Calories" transform="translate(190 1114)" font-size="30" font-family="SegoeUI-Semibold, Segoe UI" font-weight="600"><tspan x="0" y="0">Calories</tspan></text>
      <text id="_145Kcal" data-name="145Kcal" transform="translate(790 1114)" font-size="30" font-family="SegoeUI, Segoe UI"><tspan x="0" y="0">145Kcal</tspan></text>
      <path id="horizontal_rule_FILL0_wght400_GRAD0_opsz48" d="M8,25.5v-3H710v3Z" transform="translate(185 1104.5)" opacity="0.3"/>
    </g>
    <g id="Group_27-2" data-name="Group 27" transform="translate(0 68)">
      <text id="Total_fat" data-name="Total fat" transform="translate(190 1114)" font-size="30" font-family="SegoeUI-Semibold, Segoe UI" font-weight="600"><tspan x="0" y="0">Total fat</tspan></text>
      <text id="_14.5g" data-name="14.5g" transform="translate(790 1114)" font-size="30" font-family="SegoeUI, Segoe UI"><tspan x="0" y="0">14.5g</tspan></text>
      <path id="horizontal_rule_FILL0_wght400_GRAD0_opsz48-2" data-name="horizontal_rule_FILL0_wght400_GRAD0_opsz48" d="M8,25.5v-3H710v3Z" transform="translate(185 1104.5)" opacity="0.3"/>
    </g>
    <g id="Group_27-3" data-name="Group 27" transform="translate(0 136)">
      <text id="Saturated_fat" data-name="Saturated fat" transform="translate(190 1114)" font-size="30" font-family="SegoeUI-Semibold, Segoe UI" font-weight="600"><tspan x="0" y="0">Saturated fat</tspan></text>
      <text id="_2g" data-name="2g" transform="translate(790 1114)" font-size="30" font-family="SegoeUI, Segoe UI"><tspan x="0" y="0">2g</tspan></text>
      <path id="horizontal_rule_FILL0_wght400_GRAD0_opsz48-3" data-name="horizontal_rule_FILL0_wght400_GRAD0_opsz48" d="M8,25.5v-3H710v3Z" transform="translate(185 1104.5)" opacity="0.3"/>
    </g>
    <g id="Group_27-4" data-name="Group 27" transform="translate(0 204)">
      <text id="Cholestral" transform="translate(190 1114)" font-size="30" font-family="SegoeUI-Semibold, Segoe UI" font-weight="600"><tspan x="0" y="0">Cholestral</tspan></text>
      <text id="_0mg" data-name="0mg" transform="translate(790 1114)" font-size="30" font-family="SegoeUI, Segoe UI"><tspan x="0" y="0">0mg</tspan></text>
      <path id="horizontal_rule_FILL0_wght400_GRAD0_opsz48-4" data-name="horizontal_rule_FILL0_wght400_GRAD0_opsz48" d="M8,25.5v-3H710v3Z" transform="translate(185 1104.5)" opacity="0.3"/>
    </g>
    <g id="Group_27-5" data-name="Group 27" transform="translate(0 272)">
      <text id="Sodium" transform="translate(190 1114)" font-size="30" font-family="SegoeUI-Semibold, Segoe UI" font-weight="600"><tspan x="0" y="0">Sodium</tspan></text>
      <text id="_5mg" data-name="5mg" transform="translate(790 1114)" font-size="30" font-family="SegoeUI, Segoe UI"><tspan x="0" y="0">5mg</tspan></text>
      <path id="horizontal_rule_FILL0_wght400_GRAD0_opsz48-5" data-name="horizontal_rule_FILL0_wght400_GRAD0_opsz48" d="M8,25.5v-3H710v3Z" transform="translate(185 1104.5)" opacity="0.3"/>
    </g>
    <g id="Group_27-6" data-name="Group 27" transform="translate(0 340)">
      <text id="Total_Carbohydrate" data-name="Total Carbohydrate" transform="translate(190 1114)" font-size="30" font-family="SegoeUI-Semibold, Segoe UI" font-weight="600"><tspan x="0" y="0">Total Carbohydrate</tspan></text>
      <text id="_8.2g" data-name="8.2g" transform="translate(790 1114)" font-size="30" font-family="SegoeUI, Segoe UI"><tspan x="0" y="0">8.2g</tspan></text>
      <path id="horizontal_rule_FILL0_wght400_GRAD0_opsz48-6" data-name="horizontal_rule_FILL0_wght400_GRAD0_opsz48" d="M8,25.5v-3H710v3Z" transform="translate(185 1104.5)" opacity="0.3"/>
    </g>
    <g id="Group_27-7" data-name="Group 27" transform="translate(0 408)">
      <text id="Protein" transform="translate(190 1114)" font-size="30" font-family="SegoeUI-Semibold, Segoe UI" font-weight="600"><tspan x="0" y="0">Protein</tspan></text>
      <text id="_1g" data-name="1g" transform="translate(790 1114)" font-size="30" font-family="SegoeUI, Segoe UI"><tspan x="0" y="0">1g</tspan></text>
      <path id="horizontal_rule_FILL0_wght400_GRAD0_opsz48-7" data-name="horizontal_rule_FILL0_wght400_GRAD0_opsz48" d="M8,25.5v-3H710v3Z" transform="translate(185 1104.5)" opacity="0.3"/>
    </g>
    <g id="Group_27-8" data-name="Group 27" transform="translate(0 476)">
      <text id="Vitamin_D" data-name="Vitamin D" transform="translate(190 1114)" font-size="30" font-family="SegoeUI-Semibold, Segoe UI" font-weight="600"><tspan x="0" y="0">Vitamin D</tspan></text>
      <text id="_0mcg" data-name="0mcg" transform="translate(790 1114)" font-size="30" font-family="SegoeUI, Segoe UI"><tspan x="0" y="0">0mcg</tspan></text>
      <path id="horizontal_rule_FILL0_wght400_GRAD0_opsz48-8" data-name="horizontal_rule_FILL0_wght400_GRAD0_opsz48" d="M8,25.5v-3H710v3Z" transform="translate(185 1104.5)" opacity="0.3"/>
    </g>
    <text id="Ingredients" transform="translate(1018 1011)" font-size="40" font-family="SegoeUI-Bold, Segoe UI" font-weight="700"><tspan x="0" y="0">Ingredients</tspan></text>
    <g id="Repeat_Grid_4" data-name="Repeat Grid 4" transform="translate(1018 1085)" clip-path="url(#clip-path)">
      <g transform="translate(-1018 -1085)">
        <text id="_600g_auberges_rounds" data-name="600g auberges rounds" transform="translate(1018 1117)" font-size="30" font-family="SegoeUI, Segoe UI"><tspan x="0" y="0">600g auberges rounds</tspan></text>
      </g>
    </g>
    <g id="Repeat_Grid_4-2" data-name="Repeat Grid 4" transform="translate(1018 1145)" clip-path="url(#clip-path)">
      <g transform="translate(-1018 -1085)">
        <text id="_3_tbsp._olive_oil" data-name="3 tbsp. olive oil" transform="translate(1018 1117)" font-size="30" font-family="SegoeUI, Segoe UI"><tspan x="0" y="0">3 tbsp. olive oil</tspan></text>
      </g>
    </g>
    <g id="Repeat_Grid_4-3" data-name="Repeat Grid 4" transform="translate(1018 1205)" clip-path="url(#clip-path)">
      <g transform="translate(-1018 -1085)">
        <text id="_2_onions_finely_sliced" data-name="2 onions, finely sliced" transform="translate(1018 1117)" font-size="30" font-family="SegoeUI, Segoe UI"><tspan x="0" y="0">2 onions, finely sliced</tspan></text>
      </g>
    </g>
    <g id="Repeat_Grid_4-4" data-name="Repeat Grid 4" transform="translate(1018 1265)" clip-path="url(#clip-path)">
      <g transform="translate(-1018 -1085)">
        <text id="_2_garlic_cloves_crushed" data-name="2 garlic cloves, crushed" transform="translate(1018 1117)" font-size="30" font-family="SegoeUI, Segoe UI"><tspan x="0" y="0">2 garlic cloves, crushed</tspan></text>
      </g>
    </g>
    <g id="Repeat_Grid_4-5" data-name="Repeat Grid 4" transform="translate(1018 1325)" clip-path="url(#clip-path)">
      <g transform="translate(-1018 -1085)">
        <text id="_1_tsp_garam_masala" data-name="1 tsp garam masala" transform="translate(1018 1117)" font-size="30" font-family="SegoeUI, Segoe UI"><tspan x="0" y="0">1 tsp garam masala</tspan></text>
      </g>
    </g>
    <g id="Repeat_Grid_4-6" data-name="Repeat Grid 4" transform="translate(1018 1385)" clip-path="url(#clip-path)">
      <g transform="translate(-1018 -1085)">
        <text id="_1_tsp_ground_coriander" data-name="1 tsp ground coriander" transform="translate(1018 1117)" font-size="30" font-family="SegoeUI, Segoe UI"><tspan x="0" y="0">1 tsp ground coriander</tspan></text>
      </g>
    </g>
    <g id="Repeat_Grid_4-7" data-name="Repeat Grid 4" transform="translate(1018 1445)" clip-path="url(#clip-path-7)">
      <g transform="translate(-1018 -1085)">
        <text id="_400ml_tomatoes_chopped" data-name="400ml tomatoes, chopped" transform="translate(1018 1117)" font-size="30" font-family="SegoeUI, Segoe UI"><tspan x="0" y="0">400ml tomatoes, chopped</tspan></text>
      </g>
      <g transform="translate(-1018 -1025)">
        <text id="_250ml_coconut_milk" data-name="250ml coconut milk" transform="translate(1018 1117)" font-size="30" font-family="SegoeUI, Segoe UI"><tspan x="0" y="0">250ml coconut milk</tspan></text>
      </g>
      <g transform="translate(-1018 -965)">
        <text id="_1_2_small_pack_chopped_coriander" data-name="1/2 small pack chopped coriander" transform="translate(1018 1117)" font-size="30" font-family="SegoeUI, Segoe UI"><tspan x="0" y="0">1/2 small pack chopped coriander</tspan></text>
      </g>
    </g>
    <g id="Path_4" data-name="Path 4" transform="translate(0 1743)" fill="#e1e1e1">
      <path d="M 1919.5 1101.180908203125 L 0.5 1101.180908203125 L 0.5 0.4999779164791107 L 1919.5 0.4999779164791107 L 1919.5 1101.180908203125 Z" stroke="none"/>
      <path d="M 1 1 L 1 1100.680908203125 L 1919 1100.680908203125 L 1919 1 L 1 1 M 0 0 L 1920 0 L 1920 1101.680908203125 L 0 1101.680908203125 L 0 0 Z" stroke="none" fill="#707070"/>
    </g>
    <text id="Step_by_step_Method" data-name="Step by step Method" transform="translate(960 1830)" fill="#fff" font-size="40" font-family="SegoeUI-Bold, Segoe UI" font-weight="700"><tspan x="-195.479" y="0">Step by step Method</tspan></text>
    <g transform="matrix(1, 0, 0, 1, 0, 0)" filter="url(#Rectangle_9)">
      <rect id="Rectangle_9-4" data-name="Rectangle 9" width="1640" height="294" rx="50" transform="translate(140 1894)" fill="#fff"/>
    </g>
    <g id="Group_28" data-name="Group 28" transform="translate(221)">
      <text id="Step_1" data-name="Step 1" transform="translate(734 1955)" font-size="30" font-family="SegoeUI-Bold, Segoe UI" font-weight="700"><tspan x="-43.997" y="0">Step 1</tspan></text>
      <text id="Heat_oil_in_a_sufuria_add_in_the_onion_and_ginger._Let_this_cook_over_a_medium_flame_until_browned._Stir_in_the_meat_and_replace_lid_over_sufuria.Let_the_meat_cook_for_about_three_minutes_the_meat_should_be_tender_._If_the_meat_has_not_softened_allow_it_" data-name="Heat oil in a sufuria,add in the onion and ginger. Let this cook over a medium flame until browned.
Stir in the meat and replace lid over sufuria.Let the meat cook for about three minutes (the meat should be tender). If the meat has not 
softened allow it " transform="translate(-31 2000)" font-size="30" font-family="SegoeUI, Segoe UI" opacity="0.9"><tspan x="-651.775" y="32">Heat oil in a sufuria,add in the onion and ginger. Let this cook over a medium flame until browned.</tspan><tspan x="-759.8" y="72">Stir in the meat and replace lid over sufuria.Let the meat cook for about three minutes (the meat should be tender). </tspan><tspan x="-124.863" y="112">If the meat has not </tspan><tspan x="-324.551" y="152">softened allow it to cook for a few more minutes.</tspan></text>
    </g>
    <g transform="matrix(1, 0, 0, 1, 0, 0)" filter="url(#Rectangle_9-2)">
      <rect id="Rectangle_9-5" data-name="Rectangle 9" width="1640" height="294" rx="50" transform="translate(140 2208)" fill="#fff"/>
    </g>
    <text id="Step_2" data-name="Step 2" transform="translate(955 2270)" font-size="30" font-family="SegoeUI-Bold, Segoe UI" font-weight="700"><tspan x="-43.997" y="0">Step 2</tspan></text>
    <text id="Add_pilau_masala_and_salt_while_stirring_continuously_to_ensure_the_spices_are_well-distributed._You_may_also_add_a_little_water_incase_your_meat_is_dry_and_sticking_to_the_sufuria._Add_tomato_paste_and_continue_to_stir._Add" data-name="Add pilau masala and salt while stirring continuously to ensure the spices are well-distributed. 
(You may also add a little 
water incase your meat is dry and sticking to the sufuria.)
Add tomato paste and continue to stir. Add" transform="translate(190 2276)" font-size="30" font-family="SegoeUI, Segoe UI" opacity="0.9"><tspan x="-618.984" y="32">Add pilau masala and salt while stirring continuously to ensure the spices are well-distributed. </tspan><tspan x="-165.388" y="72">(You may also add a little </tspan><tspan x="-376.084" y="112">water incase your meat is dry and sticking to the sufuria.)</tspan><tspan x="-287.6" y="152">Add tomato paste and continue to stir. Add</tspan></text>
    <g transform="matrix(1, 0, 0, 1, 0, 0)" filter="url(#Rectangle_9-3)">
      <rect id="Rectangle_9-6" data-name="Rectangle 9" width="1640" height="294" rx="50" transform="translate(140 2522)" fill="#fff"/>
    </g>
    <text id="Step_3" data-name="Step 3" transform="translate(955 2584)" font-size="30" font-family="SegoeUI-Bold, Segoe UI" font-weight="700"><tspan x="-43.997" y="0">Step 3</tspan></text>
    <text id="_Reduce_the_heat_and_allow_the_rice_to_simmer_while_covered._After_about_5_minutes_of_cooking_give_the_rice_a_stir_using_a_fork_and_cover._Repeat_the_stirring_one_or_two_more_times_to_ensure_the_rice_is_cooking_evenly_and_does_not_stick_to_bottom_of_su" data-name="    Reduce the heat and allow the rice to simmer while covered. After about 5 minutes of cooking, give the rice a stir using a fork and cover. Repeat the stirring one or two more times to ensure the rice is cooking evenly and does not stick to bottom of su" transform="translate(190 2590)" font-size="30" font-family="SegoeUI, Segoe UI" opacity="0.9"><tspan x="-761.616" y="32" xml:space="preserve">    Reduce the heat and allow the rice to simmer while covered. After about 5 minutes of cooking, give the rice a stir </tspan><tspan x="-759.712" y="72">using a fork and cover. Repeat the stirring one or two more times to ensure the rice is cooking evenly and does not </tspan><tspan x="-170.508" y="112">stick to bottom of sufuria.</tspan><tspan x="-401.47" y="152" xml:space="preserve">    The rice should cook until all excess water has evaporated.</tspan><tspan x="-434.414" y="192">Once ready, the dish may be accompanied with some kachumbari</tspan></text>
    <rect id="Rectangle_10" data-name="Rectangle 10" width="1920" height="184" rx="10" transform="translate(0 2897)" fill="#e1e1e1"/>
    <text id="Rate_this_recipe" data-name="Rate this recipe" transform="translate(518 3001)" font-size="30" font-family="SegoeUI-Semibold, Segoe UI" font-weight="600"><tspan x="-104.619" y="0">Rate this recipe</tspan></text>
    <g id="Footer" transform="translate(0 3080)">
      <rect id="Rectangle_7" data-name="Rectangle 7" width="1920" height="445" fill="#fff"/>
      <g id="Group_13" data-name="Group 13" transform="translate(278 146.5)">
        <text id="About_Us" data-name="About Us" transform="translate(0 32)" fill="#707070" font-size="30" font-family="SegoeUI-Bold, Segoe UI" font-weight="700"><tspan x="0" y="0">About Us</tspan></text>
        <text id="About_Us-2" data-name="About Us" transform="translate(0 106)" fill="#707070" font-size="30" font-family="SegoeUI, Segoe UI"><tspan x="0" y="0">About Us</tspan></text>
        <text id="Contact_Us" data-name="Contact Us" transform="translate(0 179)" fill="#707070" font-size="30" font-family="SegoeUI, Segoe UI"><tspan x="0" y="0">Contact Us</tspan></text>
        <text id="Help" transform="translate(0 253)" fill="#707070" font-size="30" font-family="SegoeUI, Segoe UI"><tspan x="0" y="0">Help</tspan></text>
      </g>
      <g id="Group_13-2" data-name="Group 13" transform="translate(888 146.5)">
        <text id="About_Us-3" data-name="About Us" transform="translate(0 32)" fill="#707070" font-size="30" font-family="SegoeUI-Bold, Segoe UI" font-weight="700"><tspan x="0" y="0">About Us</tspan></text>
        <text id="About_Us-4" data-name="About Us" transform="translate(0 106)" fill="#707070" font-size="30" font-family="SegoeUI, Segoe UI"><tspan x="0" y="0">About Us</tspan></text>
        <text id="Contact_Us-2" data-name="Contact Us" transform="translate(0 179)" fill="#707070" font-size="30" font-family="SegoeUI, Segoe UI"><tspan x="0" y="0">Contact Us</tspan></text>
        <text id="Help-2" data-name="Help" transform="translate(0 253)" fill="#707070" font-size="30" font-family="SegoeUI, Segoe UI"><tspan x="0" y="0">Help</tspan></text>
      </g>
      <g id="Group_13-3" data-name="Group 13" transform="translate(1498 146.5)">
        <text id="About_Us-5" data-name="About Us" transform="translate(0 32)" fill="#707070" font-size="30" font-family="SegoeUI-Bold, Segoe UI" font-weight="700"><tspan x="0" y="0">About Us</tspan></text>
        <text id="About_Us-6" data-name="About Us" transform="translate(0 106)" fill="#707070" font-size="30" font-family="SegoeUI, Segoe UI"><tspan x="0" y="0">About Us</tspan></text>
        <text id="Contact_Us-3" data-name="Contact Us" transform="translate(0 179)" fill="#707070" font-size="30" font-family="SegoeUI, Segoe UI"><tspan x="0" y="0">Contact Us</tspan></text>
        <text id="Help-3" data-name="Help" transform="translate(0 253)" fill="#707070" font-size="30" font-family="SegoeUI, Segoe UI"><tspan x="0" y="0">Help</tspan></text>
      </g>
    </g>
    <g id="Group_29" data-name="Group 29" transform="translate(869.266 2977)">
      <g id="icon_toggle_star_border_24px" data-name="icon/toggle/star_border_24px" transform="translate(-0.266)">
        <rect id="Boundary" width="24" height="24" fill="none"/>
        <path id="_Color" data-name=" ↳Color" d="M3.818,19v0L5.46,11.969,0,7.239,7.19,6.63,10,0l2.81,6.62L20,7.239l-5.45,4.73L16.18,19,10,15.269,3.82,19ZM10,13.4h0l3.77,2.279-1-4.279,3.32-2.88-4.38-.381L10,4.1,8.3,8.129,3.92,8.51,7.24,11.39l-1,4.279L10,13.4Z" transform="translate(2 2)"/>
      </g>
      <g id="icon_toggle_star_border_24px-2" data-name="icon/toggle/star_border_24px" transform="translate(43.734)">
        <rect id="Boundary-2" data-name="Boundary" width="24" height="24" fill="none"/>
        <path id="_Color-2" data-name=" ↳Color" d="M3.818,19v0L5.46,11.969,0,7.239,7.19,6.63,10,0l2.81,6.62L20,7.239l-5.45,4.73L16.18,19,10,15.269,3.82,19ZM10,13.4h0l3.77,2.279-1-4.279,3.32-2.88-4.38-.381L10,4.1,8.3,8.129,3.92,8.51,7.24,11.39l-1,4.279L10,13.4Z" transform="translate(2 2)"/>
      </g>
      <g id="icon_toggle_star_border_24px-3" data-name="icon/toggle/star_border_24px" transform="translate(87.734)">
        <rect id="Boundary-3" data-name="Boundary" width="24" height="24" fill="none"/>
        <path id="_Color-3" data-name=" ↳Color" d="M3.818,19v0L5.46,11.969,0,7.239,7.19,6.63,10,0l2.81,6.62L20,7.239l-5.45,4.73L16.18,19,10,15.269,3.82,19ZM10,13.4h0l3.77,2.279-1-4.279,3.32-2.88-4.38-.381L10,4.1,8.3,8.129,3.92,8.51,7.24,11.39l-1,4.279L10,13.4Z" transform="translate(2 2)"/>
      </g>
      <g id="icon_toggle_star_border_24px-4" data-name="icon/toggle/star_border_24px" transform="translate(131.734)">
        <rect id="Boundary-4" data-name="Boundary" width="24" height="24" fill="none"/>
        <path id="_Color-4" data-name=" ↳Color" d="M3.818,19v0L5.46,11.969,0,7.239,7.19,6.63,10,0l2.81,6.62L20,7.239l-5.45,4.73L16.18,19,10,15.269,3.82,19ZM10,13.4h0l3.77,2.279-1-4.279,3.32-2.88-4.38-.381L10,4.1,8.3,8.129,3.92,8.51,7.24,11.39l-1,4.279L10,13.4Z" transform="translate(2 2)"/>
      </g>
      <g id="icon_toggle_star_border_24px-5" data-name="icon/toggle/star_border_24px" transform="translate(175.734)">
        <rect id="Boundary-5" data-name="Boundary" width="24" height="24" fill="none"/>
        <path id="_Color-5" data-name=" ↳Color" d="M3.818,19v0L5.46,11.969,0,7.239,7.19,6.63,10,0l2.81,6.62L20,7.239l-5.45,4.73L16.18,19,10,15.269,3.82,19ZM10,13.4h0l3.77,2.279-1-4.279,3.32-2.88-4.38-.381L10,4.1,8.3,8.129,3.92,8.51,7.24,11.39l-1,4.279L10,13.4Z" transform="translate(2 2)"/>
      </g>
    </g>
    <g id="_2_serving_btn-2" data-name="2 serving btn" transform="translate(1314 2942)">
      <g id="Group_21-2" data-name="Group 21">
        <g id="Group_30" data-name="Group 30">
          <g id="Path_2-8" data-name="Path 2">
            <path d="M 142.7486877441406 94.5 L 47.25130844116211 94.5 C 40.94002532958984 94.5 34.81778717041016 93.25752258300781 29.05461883544922 90.80706787109375 C 23.48764228820801 88.44004821777344 18.48783302307129 85.05128479003906 14.19407176971436 80.73495483398438 C 9.900142669677734 76.41840362548828 6.528928756713867 71.39197540283203 4.174118995666504 65.79523468017578 C 1.736142873764038 60.00090408325195 0.5 53.84550094604492 0.5 47.5 C 0.5 41.15449905395508 1.736142873764038 34.99909591674805 4.174118995666504 29.20476150512695 C 6.528928756713867 23.60802459716797 9.900142669677734 18.58159446716309 14.19407176971436 14.26504802703857 C 18.48783302307129 9.948714256286621 23.48764228820801 6.559952259063721 29.05461883544922 4.192928791046143 C 34.81778717041016 1.742476224899292 40.94002532958984 0.5 47.25130844116211 0.5 L 142.7486877441406 0.5 C 149.0599822998047 0.5 155.1822204589844 1.742476224899292 160.9453735351562 4.192928791046143 C 166.5123596191406 6.559952259063721 171.5121612548828 9.948714256286621 175.8059234619141 14.26504802703857 C 180.099853515625 18.58159446716309 183.4710693359375 23.60802459716797 185.8258819580078 29.20476150512695 C 188.2638549804688 34.99909591674805 189.5 41.15449905395508 189.5 47.5 C 189.5 53.84550094604492 188.2638549804688 60.00090408325195 185.8258819580078 65.79523468017578 C 183.4710693359375 71.39197540283203 180.099853515625 76.41840362548828 175.8059234619141 80.73495483398438 C 171.5121612548828 85.05128479003906 166.5123596191406 88.44004821777344 160.9453735351562 90.80706787109375 C 155.1822204589844 93.25752258300781 149.0599822998047 94.5 142.7486877441406 94.5 Z" stroke="none"/>
            <path d="M 47.25129699707031 1 C 41.00762939453125 1 34.95120239257812 2.229072570800781 29.250244140625 4.653053283691406 C 23.742919921875 6.994697570800781 18.79656982421875 10.34729766845703 14.54855346679688 14.61767578125 C 10.30015563964844 18.888427734375 6.964752197265625 23.86147308349609 4.634979248046875 29.39867401123047 C 2.222976684570312 35.13127517700195 1 41.22145080566406 1 47.5 C 1 53.77854919433594 2.222976684570312 59.86872482299805 4.634979248046875 65.60132598876953 C 6.964752197265625 71.13852691650391 10.30015563964844 76.111572265625 14.54855346679688 80.38232421875 C 18.79656982421875 84.65270233154297 23.742919921875 88.00530242919922 29.250244140625 90.34694671630859 C 34.95120239257812 92.77092742919922 41.00762939453125 94 47.25129699707031 94 L 142.7486724853516 94 C 148.9923553466797 94 155.0487670898438 92.77092742919922 160.7497253417969 90.34694671630859 C 166.2570495605469 88.00530242919922 171.2034301757812 84.65270233154297 175.4514465332031 80.38232421875 C 179.6998291015625 76.111572265625 183.0352478027344 71.13852691650391 185.3650207519531 65.60132598876953 C 187.7770233154297 59.86872482299805 189 53.77854919433594 189 47.5 C 189 41.22145080566406 187.7770233154297 35.13127517700195 185.3650207519531 29.39867401123047 C 183.0352478027344 23.86147308349609 179.6998291015625 18.888427734375 175.4514465332031 14.61767578125 C 171.2034301757812 10.34729766845703 166.2570495605469 6.994697570800781 160.7497253417969 4.653053283691406 C 155.0487670898438 2.229072570800781 148.9923553466797 1 142.7486724853516 1 L 47.25129699707031 1 M 47.25129699707031 0 L 142.7486724853516 0 C 168.8448486328125 0 190 21.26647186279297 190 47.5 C 190 73.7335205078125 168.8448486328125 95 142.7486724853516 95 L 47.25129699707031 95 C 21.15512084960938 95 0 73.7335205078125 0 47.5 C 0 21.26647186279297 21.15512084960938 0 47.25129699707031 0 Z" stroke="none" fill="#2a0"/>
          </g>
          <text id="Submit" transform="translate(47 60)" fill="#fff" font-size="30" font-family="SegoeUI-Semibold, Segoe UI" font-weight="600"><tspan x="0" y="0">Submit</tspan></text>
        </g>
      </g>
    </g>
    <g id="Nav_bar_main" data-name="Nav bar main">
      <rect id="Rectangle_1" data-name="Rectangle 1" width="1920" height="97" fill="#707070"/>
      <text id="KIENYEJI" transform="translate(39 65)" fill="#fff" font-size="40" font-family="SegoeUI-Bold, Segoe UI" font-weight="700"><tspan x="0" y="0">KIENYEJI</tspan></text>
      <text id="Articles" transform="translate(603 61)" fill="#fff" font-size="30" font-family="SegoeUI-Semibold, Segoe UI" font-weight="600"><tspan x="0" y="0">Articles</tspan></text>
      <text id="Tutorials" transform="translate(977 61)" fill="#fff" font-size="30" font-family="SegoeUI-Semibold, Segoe UI" font-weight="600"><tspan x="0" y="0">Tutorials</tspan></text>
      <text id="Recipes" transform="translate(1365 61)" fill="#fff" font-size="30" font-family="SegoeUI-Semibold, Segoe UI" font-weight="600"><tspan x="0" y="0">Recipes</tspan></text>
      <g id="account_circle_FILL0_wght400_GRAD0_opsz48" transform="translate(1740 29)">
        <path id="account_circle_FILL0_wght400_GRAD0_opsz48-2" data-name="account_circle_FILL0_wght400_GRAD0_opsz48" d="M11.1,35.25a28.8,28.8,0,0,1,6.25-3.375A18.606,18.606,0,0,1,24,30.7a18.809,18.809,0,0,1,6.675,1.175A28.568,28.568,0,0,1,36.95,35.25a17.553,17.553,0,0,0,3.125-5.45A18.071,18.071,0,0,0,41,24,16.657,16.657,0,0,0,24,7,16.657,16.657,0,0,0,7,24a17.637,17.637,0,0,0,.95,5.8A17.994,17.994,0,0,0,11.1,35.25ZM24,25.5a6.746,6.746,0,0,1-6.85-6.85A6.746,6.746,0,0,1,24,11.8a6.746,6.746,0,0,1,6.85,6.85A6.746,6.746,0,0,1,24,25.5ZM24,44a19.352,19.352,0,0,1-7.75-1.575A20.15,20.15,0,0,1,5.575,31.75,19.352,19.352,0,0,1,4,24a19.3,19.3,0,0,1,1.575-7.775A20.218,20.218,0,0,1,16.25,5.575,19.352,19.352,0,0,1,24,4a19.3,19.3,0,0,1,7.775,1.575,20.286,20.286,0,0,1,10.65,10.65A19.3,19.3,0,0,1,44,24a19.352,19.352,0,0,1-1.575,7.75,20.218,20.218,0,0,1-10.65,10.675A19.3,19.3,0,0,1,24,44Zm0-3a18.337,18.337,0,0,0,5.375-.8,15.973,15.973,0,0,0,5.175-2.8,21.762,21.762,0,0,0-5.2-2.75,15.539,15.539,0,0,0-10.7,0,21.762,21.762,0,0,0-5.2,2.75,15.973,15.973,0,0,0,5.175,2.8A18.337,18.337,0,0,0,24,41Zm0-18.5a3.684,3.684,0,0,0,3.85-3.85,3.851,3.851,0,1,0-7.7,0A3.684,3.684,0,0,0,24,22.5ZM24,18.65ZM24,37.35Z" transform="translate(-4 -4)" fill="#fff"/>
      </g>
    </g>
    <line id="Line_3" data-name="Line 3" x1="1484" y2="460" transform="translate(45.5 168.5)" fill="none" stroke="#707070" stroke-width="1"/>
    <line id="Line_4" data-name="Line 4" x2="1772" y2="406" transform="translate(76.5 168.5)" fill="none" stroke="#707070" stroke-width="1"/>
  </g>
</svg>
